<?xml version="1.0" encoding="UTF-8"?><svg xmlns="http://www.w3.org/2000/svg" viewBox="0 0 1514.01 215.93"><defs><style>.d{fill:#1c1c1c;}</style></defs><g id="a"/><g id="b"><g id="c"><g><path class="d" d="M278.61,115.82c-5.85-13.73-11.37-26.7-16.78-39.85h0c-1.07-2.59-1.39-5.79-.83-8.16,4.02-17.18,8.31-34.62,12.46-51.48l4.01-16.32h-1.55c-6.97,0-12.99,0-21.07,.78-10.56,1.01-20.71,4.42-30.52,7.72-4.93,1.66-10.04,3.37-15.11,4.76-2.15,.58-5.21-.42-7.45-1.15-38.87-12.76-78.46-12.73-117.69,.1-2.09,.69-5.26,1.74-7.44,1.13-4.61-1.24-9.36-2.72-14.39-4.28C50.47,5.39,38.29,1.6,26.92,.61c-6.92-.61-10.76-.61-17.13-.61h-1.51l.33,1.48c2.11,9.42,4.51,18.99,6.83,28.24,2.85,11.37,5.8,23.12,8.24,34.69,1.16,5.56,1.18,9.66,.07,12.52-5.11,13.14-10.59,26.03-16.39,39.67-2.23,5.25-4.49,10.58-6.78,16.03l-.58,1.39,1.49,.27c49.89,9.04,86.74,39.85,116.2,68.8l.96,.94,3.68-4.57-29.3-37.4,8.37-6.25c8.09-6.04,16.15-12.05,24.14-18.11,3.4-2.58,5.23-5.43,5.44-8.48,.2-2.92-1.1-5.8-3.88-8.58-2.48-2.49-5.38-5.82-8.45-9.35-9.31-10.69-19.86-22.8-27.95-22.8-26.52,0-49.76,15.12-63.64,24.15-2.4,1.56-4.5,2.92-6.27,3.99,1.68-4.02,3.27-8,4.82-11.88,9.97-24.96,18.59-46.52,42.53-62.23l1.39-.92-11.24-9.01c-9.23-7.4-18.14-14.54-27.52-22.07,.61,.1,1.15,.18,1.68,.28,12.48,2.25,23.66,8.17,34.47,13.9,5.58,2.96,11.36,6.02,17.26,8.55,20.99,9,35.94,24.03,47.04,47.3,2.66,5.56,5.1,11.36,7.46,16.96,1,2.37,2,4.75,3.02,7.11l1.04,2.42,1.16-2.37c1.94-3.98,3.81-7.94,5.67-11.87,4.13-8.76,8.04-17.04,12.57-25.15,8.47-15.24,19.44-25.52,33.54-31.43,5.73-2.41,10.87-5.09,15.27-7.95,13.93-9.04,28.44-14.82,44.23-17.59-7,5.68-13.84,11.23-20.77,16.84l-17.69,14.33,1.38,.91c24.34,16.01,33.51,38.71,43.22,62.74,1.45,3.59,2.94,7.27,4.48,10.92-.63-.42-1.31-.88-2.01-1.35-11.7-7.9-39.02-26.36-69.57-26.36-.16,0-.32,0-.47,0-7.66,0-18.91,13.27-24.31,19.64-.64,.76-1.19,1.41-1.63,1.91-9.08,10.36-13.22,15.09-12.78,19.68,.39,4.1,4.52,7.31,12.02,13.14,1.16,.9,2.4,1.87,3.73,2.91,5.26,4.15,10.92,7.88,16.38,11.49,2.14,1.41,4.26,2.81,6.35,4.23l-29.56,37.59,3.71,4.66,.96-.95c27.53-27.23,65.61-59.67,116.16-68.91l1.49-.27-.59-1.39c-2.4-5.66-4.75-11.19-7.07-16.64Z"/><path class="d" d="M149.09,177.4c-1.99,.07-9.61,.08-11.66-.01-4.82-.23-10.81-.51-11.68,8.51-.42,4.33,1.21,8.85,4.46,12.39,3.45,3.75,8.32,5.98,13.06,5.98h.16c4.5-.05,9.01-2.14,12.38-5.73,3.24-3.45,4.97-7.91,4.74-12.22-.51-9.33-6.59-9.11-11.46-8.92Z"/><path class="d" d="M431.22,110.06c1.24,.71,2.74,1.06,4.52,1.06h18.37l-27.48-40.54c-1.87-2.73-4.1-4.83-6.68-6.3,3.85-1.21,7.28-2.83,10.29-4.86,3.01-2.02,5.54-4.38,7.59-7.06,2.05-2.68,3.62-5.67,4.71-8.96,1.09-3.29,1.63-6.78,1.63-10.48,0-4.66-.8-8.92-2.39-12.79-1.59-3.87-4.1-7.2-7.52-9.98-3.42-2.78-7.79-4.95-13.13-6.49-5.34-1.54-11.76-2.32-19.25-2.32h-33.48V111.13h20.42v-42.89h8.73c2.02,0,3.56,.28,4.59,.83,1.04,.56,1.99,1.49,2.85,2.81l23.08,35.15c.86,1.32,1.91,2.33,3.15,3.04Zm-19.59-57.93c-2.86,.96-6.21,1.44-10.06,1.44h-12.75V17.14h13.06c7.54,0,13.15,1.49,16.82,4.48,3.67,2.99,5.5,7.26,5.5,12.83,0,2.78-.46,5.34-1.37,7.67-.91,2.33-2.29,4.34-4.14,6.04-1.85,1.7-4.2,3.02-7.06,3.99Z"/><path class="d" d="M545.9,16.11c-4.86-4.98-10.7-8.89-17.54-11.73-6.83-2.83-14.4-4.25-22.7-4.25s-15.88,1.4-22.74,4.21-12.73,6.72-17.61,11.73c-4.89,5.01-8.67,10.95-11.35,17.8-2.68,6.86-4.02,14.31-4.02,22.36s1.34,15.5,4.02,22.36c2.68,6.86,6.47,12.79,11.35,17.8,4.88,5.01,10.75,8.92,17.61,11.73s14.44,4.21,22.74,4.21,15.87-1.4,22.7-4.21,12.68-6.72,17.54-11.73c4.86-5.01,8.63-10.94,11.31-17.8,2.68-6.86,4.02-14.31,4.02-22.36s-1.34-15.5-4.02-22.36c-2.68-6.86-6.45-12.78-11.31-17.77Zm-8.01,56.33c-1.59,4.78-3.88,8.83-6.87,12.15-2.99,3.32-6.62,5.86-10.89,7.63-4.28,1.77-9.1,2.66-14.46,2.66s-10.2-.88-14.5-2.66c-4.3-1.77-7.96-4.31-10.97-7.63-3.01-3.31-5.33-7.36-6.95-12.15-1.62-4.78-2.43-10.19-2.43-16.21s.81-11.43,2.43-16.21c1.62-4.78,3.94-8.84,6.95-12.18,3.01-3.34,6.67-5.9,10.97-7.67,4.3-1.77,9.13-2.66,14.5-2.66s10.19,.89,14.46,2.66c4.28,1.77,7.91,4.33,10.89,7.67,2.99,3.34,5.28,7.4,6.87,12.18s2.39,10.19,2.39,16.21-.8,11.43-2.39,16.21Z"/><path class="d" d="M596.73,108.13c6.86,2.81,14.44,4.21,22.74,4.21s15.87-1.4,22.7-4.21,12.68-6.72,17.54-11.73c4.86-5.01,8.63-10.94,11.31-17.8,2.68-6.86,4.02-14.31,4.02-22.36s-1.34-15.5-4.02-22.36c-2.68-6.86-6.45-12.78-11.31-17.77-4.86-4.98-10.7-8.89-17.54-11.73-6.83-2.83-14.4-4.25-22.7-4.25s-15.88,1.4-22.74,4.21c-6.86,2.81-12.73,6.72-17.61,11.73-4.89,5.01-8.67,10.95-11.35,17.8-2.68,6.86-4.02,14.31-4.02,22.36s1.34,15.5,4.02,22.36c2.68,6.86,6.47,12.79,11.35,17.8,4.88,5.01,10.75,8.92,17.61,11.73Zm-9.68-68.1c1.62-4.78,3.93-8.84,6.95-12.18,3.01-3.34,6.67-5.9,10.97-7.67,4.3-1.77,9.13-2.66,14.5-2.66s10.19,.89,14.46,2.66c4.28,1.77,7.91,4.33,10.89,7.67,2.99,3.34,5.28,7.4,6.87,12.18s2.39,10.19,2.39,16.21-.8,11.43-2.39,16.21-3.88,8.83-6.87,12.15c-2.99,3.32-6.62,5.86-10.89,7.63-4.28,1.77-9.1,2.66-14.46,2.66s-10.2-.88-14.5-2.66c-4.3-1.77-7.96-4.31-10.97-7.63-3.01-3.31-5.33-7.36-6.95-12.15-1.62-4.78-2.43-10.19-2.43-16.21s.81-11.43,2.43-16.21Z"/><path class="d" d="M784.7,35.89c-.08,1.57-.11,3.01-.11,4.33V111.13h17.99V1.35h-15.41c-.91,0-1.7,.03-2.35,.08-.66,.05-1.25,.18-1.78,.38-.53,.2-1.01,.53-1.44,.99-.43,.46-.85,1.06-1.25,1.82l-32.49,60.81c-.86,1.62-1.67,3.32-2.43,5.09-.76,1.77-1.49,3.57-2.2,5.39-.71-1.77-1.43-3.53-2.16-5.28-.73-1.75-1.53-3.43-2.39-5.05l-32.8-60.96c-.41-.76-.84-1.37-1.29-1.82s-.95-.78-1.48-.99c-.53-.2-1.13-.33-1.78-.38-.66-.05-1.44-.08-2.35-.08h-15.41V111.13h17.99V40.22c0-1.37-.04-2.85-.11-4.44-.08-1.59-.22-3.23-.42-4.9l33.63,62.48c.76,1.42,1.75,2.52,2.96,3.3,1.21,.79,2.63,1.18,4.25,1.18h2.81c1.62,0,3.04-.39,4.25-1.18,1.21-.78,2.2-1.88,2.96-3.3l33.18-62.25c-.15,1.62-.27,3.21-.34,4.78Z"/><path class="d" d="M989.72,111.13h15.79L962.39,1.35h-20.88l-41.23,104.96-24.21-35.72c-1.87-2.73-4.1-4.83-6.68-6.3,3.85-1.21,7.28-2.83,10.29-4.86,3.01-2.02,5.54-4.38,7.59-7.06,2.05-2.68,3.62-5.67,4.71-8.96,1.09-3.29,1.63-6.78,1.63-10.48,0-4.66-.8-8.92-2.39-12.79-1.59-3.87-4.1-7.2-7.52-9.98-3.42-2.78-7.79-4.95-13.13-6.49-5.34-1.54-11.76-2.32-19.25-2.32h-33.48V111.13h20.42v-42.89h8.73c2.02,0,3.56,.28,4.59,.83,1.04,.56,1.99,1.49,2.85,2.81l23.08,35.15c.86,1.32,1.91,2.33,3.15,3.04,1.24,.71,2.74,1.06,4.52,1.06h29.08c1.72,0,3.18-.48,4.37-1.44,1.19-.96,1.99-2.02,2.39-3.19l8.2-22.4h45.48l8.2,22.4c.51,1.32,1.33,2.42,2.47,3.3,1.14,.89,2.59,1.33,4.37,1.33Zm-128.64-58.99c-2.86,.96-6.21,1.44-10.06,1.44h-12.75V17.14h13.06c7.54,0,13.15,1.49,16.82,4.48,3.67,2.99,5.5,7.26,5.5,12.83,0,2.78-.46,5.34-1.37,7.67-.91,2.33-2.29,4.34-4.14,6.04-1.85,1.7-4.2,3.02-7.06,3.99Zm73.38,17.54l13.36-36.37c.66-1.67,1.33-3.62,2.01-5.85,.68-2.23,1.38-4.63,2.09-7.21,.71,2.58,1.43,4.97,2.16,7.17,.73,2.2,1.4,4.11,2.01,5.73l13.36,36.52h-35Z"/><path class="d" d="M1083.71,86.53c-.81-.86-1.77-1.29-2.88-1.29-.66,0-1.27,.14-1.82,.42-.56,.28-1.09,.65-1.59,1.1-1.67,1.52-3.35,2.8-5.05,3.83-1.7,1.04-3.49,1.89-5.39,2.54-1.9,.66-3.97,1.14-6.23,1.44s-4.77,.46-7.55,.46c-4.66,0-9.01-.87-13.06-2.62-4.05-1.75-7.57-4.26-10.55-7.55-2.99-3.29-5.35-7.34-7.1-12.15-1.75-4.81-2.62-10.3-2.62-16.47s.87-11.35,2.62-16.13c1.75-4.78,4.18-8.84,7.29-12.18,3.11-3.34,6.83-5.91,11.16-7.71,4.33-1.8,9.07-2.69,14.23-2.69,4.4,0,8.04,.46,10.89,1.37s5.23,1.9,7.1,2.96c1.87,1.06,3.42,2.05,4.63,2.96s2.4,1.37,3.57,1.37,1.99-.23,2.62-.68c.63-.46,1.15-.99,1.56-1.59l6.83-9.49c-4.35-4.3-9.58-7.76-15.68-10.36-6.1-2.61-13.22-3.91-21.37-3.91s-15.98,1.38-22.89,4.14c-6.91,2.76-12.84,6.62-17.8,11.58-4.96,4.96-8.81,10.87-11.54,17.73-2.73,6.86-4.1,14.41-4.1,22.66s1.23,15.67,3.68,22.55c2.45,6.88,5.98,12.81,10.59,17.77,4.61,4.96,10.16,8.83,16.66,11.62,6.5,2.78,13.83,4.18,21.98,4.18,9.11,0,16.92-1.47,23.42-4.4,6.5-2.94,11.98-7.16,16.44-12.68l-8.05-8.73Z"/><path class="d" d="M1185.97,95.26l-8.05-8.73c-.81-.86-1.77-1.29-2.88-1.29-.66,0-1.27,.14-1.82,.42-.56,.28-1.09,.65-1.59,1.1-1.67,1.52-3.35,2.8-5.05,3.83-1.7,1.04-3.49,1.89-5.39,2.54-1.9,.66-3.97,1.14-6.23,1.44s-4.77,.46-7.55,.46c-4.66,0-9.01-.87-13.06-2.62-4.05-1.75-7.57-4.26-10.55-7.55-2.99-3.29-5.35-7.34-7.1-12.15-1.75-4.81-2.62-10.3-2.62-16.47s.87-11.35,2.62-16.13c1.75-4.78,4.18-8.84,7.29-12.18,3.11-3.34,6.83-5.91,11.16-7.71,4.33-1.8,9.07-2.69,14.23-2.69,4.4,0,8.04,.46,10.89,1.37,2.86,.91,5.23,1.9,7.1,2.96,1.87,1.06,3.42,2.05,4.63,2.96s2.4,1.37,3.57,1.37,1.99-.23,2.62-.68c.63-.46,1.15-.99,1.56-1.59l6.83-9.49c-4.35-4.3-9.58-7.76-15.68-10.36-6.1-2.61-13.22-3.91-21.37-3.91s-15.98,1.38-22.89,4.14c-6.91,2.76-12.84,6.62-17.8,11.58-4.96,4.96-8.81,10.87-11.54,17.73-2.73,6.86-4.1,14.41-4.1,22.66s1.23,15.67,3.68,22.55c2.45,6.88,5.98,12.81,10.59,17.77,4.61,4.96,10.16,8.83,16.66,11.62,6.5,2.78,13.83,4.18,21.98,4.18,9.11,0,16.92-1.47,23.42-4.4,6.5-2.94,11.98-7.16,16.44-12.68Z"/><path class="d" d="M1283.75,16.11c-4.86-4.98-10.7-8.89-17.54-11.73-6.83-2.83-14.4-4.25-22.7-4.25s-15.88,1.4-22.74,4.21c-6.86,2.81-12.73,6.72-17.61,11.73-4.89,5.01-8.67,10.95-11.35,17.8-2.68,6.86-4.02,14.31-4.02,22.36s1.34,15.5,4.02,22.36c2.68,6.86,6.47,12.79,11.35,17.8,4.88,5.01,10.75,8.92,17.61,11.73,6.86,2.81,14.44,4.21,22.74,4.21s15.87-1.4,22.7-4.21,12.68-6.72,17.54-11.73c4.86-5.01,8.63-10.94,11.31-17.8,2.68-6.86,4.02-14.31,4.02-22.36s-1.34-15.5-4.02-22.36c-2.68-6.86-6.45-12.78-11.31-17.77Zm-8.01,56.33c-1.59,4.78-3.88,8.83-6.87,12.15-2.99,3.32-6.62,5.86-10.89,7.63-4.28,1.77-9.1,2.66-14.46,2.66s-10.2-.88-14.5-2.66c-4.3-1.77-7.96-4.31-10.97-7.63-3.01-3.31-5.33-7.36-6.95-12.15-1.62-4.78-2.43-10.19-2.43-16.21s.81-11.43,2.43-16.21c1.62-4.78,3.93-8.84,6.95-12.18,3.01-3.34,6.67-5.9,10.97-7.67,4.3-1.77,9.13-2.66,14.5-2.66s10.19,.89,14.46,2.66c4.28,1.77,7.91,4.33,10.89,7.67,2.99,3.34,5.28,7.4,6.87,12.18,1.59,4.78,2.39,10.19,2.39,16.21s-.8,11.43-2.39,16.21Z"/><path class="d" d="M1397.55,16.11c-4.86-4.98-10.7-8.89-17.54-11.73-6.83-2.83-14.4-4.25-22.7-4.25s-15.88,1.4-22.74,4.21c-6.86,2.81-12.73,6.72-17.61,11.73-4.89,5.01-8.67,10.95-11.35,17.8-2.68,6.86-4.02,14.31-4.02,22.36s1.34,15.5,4.02,22.36c2.68,6.86,6.47,12.79,11.35,17.8,4.88,5.01,10.75,8.92,17.61,11.73,6.86,2.81,14.44,4.21,22.74,4.21s15.87-1.4,22.7-4.21c6.83-2.81,12.68-6.72,17.54-11.73,4.86-5.01,8.63-10.94,11.31-17.8,2.68-6.86,4.02-14.31,4.02-22.36s-1.34-15.5-4.02-22.36c-2.68-6.86-6.45-12.78-11.31-17.77Zm-8.01,56.33c-1.59,4.78-3.88,8.83-6.87,12.15-2.99,3.32-6.62,5.86-10.89,7.63-4.28,1.77-9.1,2.66-14.46,2.66s-10.2-.88-14.5-2.66c-4.3-1.77-7.96-4.31-10.97-7.63-3.01-3.31-5.33-7.36-6.95-12.15-1.62-4.78-2.43-10.19-2.43-16.21s.81-11.43,2.43-16.21c1.62-4.78,3.93-8.84,6.95-12.18,3.01-3.34,6.67-5.9,10.97-7.67,4.3-1.77,9.13-2.66,14.5-2.66s10.19,.89,14.46,2.66c4.28,1.77,7.91,4.33,10.89,7.67,2.99,3.34,5.28,7.4,6.87,12.18s2.39,10.19,2.39,16.21-.8,11.43-2.39,16.21Z"/><path class="d" d="M1496.02,1.35V68.08c0,1.47,.04,3.05,.11,4.74,.08,1.7,.22,3.43,.42,5.2l-57.62-73.41c-.56-.71-1.06-1.28-1.52-1.71-.46-.43-.92-.76-1.4-.99-.48-.23-1.02-.38-1.63-.46-.61-.08-1.37-.11-2.28-.11h-10.7V111.13h17.99V43.71c0-1.32-.04-2.77-.11-4.37-.08-1.59-.19-3.2-.34-4.82l57.39,73.11c1.01,1.32,2.05,2.23,3.11,2.73,1.06,.51,2.4,.76,4.02,.76h10.55V1.35h-17.99Z"/><path class="d" d="M395.04,192.13c-.58,0-1.11,.18-1.58,.55-.47,.37-1.02,.77-1.65,1.21-.63,.44-1.41,.85-2.33,1.21-.92,.37-2.13,.55-3.63,.55s-2.83-.28-4.02-.85c-1.19-.57-2.2-1.4-3.04-2.51-.83-1.1-1.47-2.46-1.92-4.08-.44-1.62-.66-3.47-.66-5.54s.2-3.79,.61-5.37c.4-1.58,1.02-2.93,1.84-4.04,.82-1.11,1.85-1.97,3.09-2.56,1.24-.59,2.68-.89,4.33-.89,1.29,0,2.37,.15,3.25,.44,.87,.29,1.63,.62,2.26,.99,.63,.37,1.18,.7,1.63,.99s.92,.44,1.4,.44c.51,0,.89-.1,1.16-.3,.27-.2,.54-.48,.82-.83l2.47-3.42c-1.75-1.75-3.71-3.09-5.9-4.02-2.19-.94-4.74-1.4-7.65-1.4-3.06,0-5.77,.51-8.12,1.52-2.35,1.01-4.33,2.41-5.92,4.19-1.59,1.78-2.8,3.9-3.63,6.34s-1.23,5.09-1.23,7.95c0,3.19,.46,6.03,1.39,8.52,.92,2.49,2.18,4.6,3.76,6.32,1.58,1.72,3.44,3.03,5.56,3.93s4.39,1.35,6.79,1.35c1.37,0,2.75-.1,4.14-.3,1.39-.2,2.74-.55,4.04-1.04,1.3-.49,2.56-1.15,3.78-1.97s2.34-1.84,3.38-3.06l-2.69-3.42c-.38-.58-.95-.87-1.71-.87Z"/><rect class="d" x="406.05" y="145.82" width="9.38" height="56.41"/><path class="d" d="M456.61,168.06c-1.67-1.72-3.69-3.05-6.05-3.99-2.37-.94-5-1.4-7.91-1.4s-5.56,.47-7.93,1.4c-2.38,.94-4.41,2.27-6.09,3.99-1.68,1.72-2.99,3.82-3.91,6.3-.92,2.48-1.39,5.25-1.39,8.31s.46,5.87,1.39,8.35c.92,2.48,2.23,4.59,3.91,6.34,1.68,1.75,3.71,3.09,6.09,4.02,2.38,.94,5.02,1.4,7.93,1.4s5.55-.47,7.91-1.4c2.37-.94,4.38-2.28,6.05-4.02,1.67-1.75,2.96-3.86,3.87-6.34,.91-2.48,1.37-5.26,1.37-8.35s-.46-5.83-1.37-8.31c-.91-2.48-2.2-4.58-3.87-6.3Zm-6.78,24.26c-1.56,2.18-3.95,3.27-7.19,3.27s-5.72-1.09-7.29-3.28c-1.57-2.19-2.35-5.37-2.35-9.55s.78-7.37,2.35-9.58c1.57-2.21,4-3.32,7.29-3.32s5.64,1.1,7.19,3.3c1.56,2.2,2.33,5.4,2.33,9.6s-.78,7.39-2.33,9.57Z"/><path class="d" d="M492.94,191.45c-1.27,1.27-2.61,2.26-4.02,2.98-1.42,.72-2.94,1.08-4.55,1.08-2.2,0-3.85-.65-4.95-1.95-1.1-1.3-1.65-3.14-1.65-5.52v-24.75h-9.38v24.75c0,2.18,.28,4.17,.85,5.98,.57,1.81,1.41,3.37,2.52,4.69,1.11,1.32,2.49,2.33,4.12,3.06s3.51,1.08,5.64,1.08c1.29,0,2.5-.13,3.63-.4,1.13-.27,2.18-.63,3.15-1.1s1.89-1.04,2.75-1.71c.86-.67,1.7-1.41,2.51-2.22l.65,3.11c.38,1.14,1.18,1.71,2.39,1.71h5.73v-38.95h-9.38v28.17Z"/><path class="d" d="M536.1,166.39c-1.21-1.16-2.59-2.09-4.14-2.79-1.54-.7-3.4-1.04-5.58-1.04-2.56,0-4.86,.51-6.91,1.54-2.05,1.03-3.81,2.45-5.28,4.27s-2.59,3.97-3.38,6.45c-.78,2.48-1.18,5.16-1.18,8.05,0,3.19,.35,6.02,1.04,8.5,.7,2.48,1.68,4.56,2.96,6.24,1.28,1.68,2.8,2.97,4.57,3.85,1.77,.88,3.72,1.33,5.85,1.33,1.37,0,2.64-.15,3.81-.44,1.18-.29,2.28-.7,3.3-1.23,1.02-.53,1.98-1.16,2.87-1.9,.88-.73,1.73-1.56,2.54-2.47l.76,3.76c.38,1.14,1.18,1.71,2.39,1.71h5.73v-56.41h-9.38v20.57Zm0,24.29c-1.21,1.49-2.51,2.65-3.87,3.45-1.37,.81-3.02,1.21-4.97,1.21-1.21,0-2.32-.22-3.3-.66-.99-.44-1.82-1.16-2.5-2.16-.68-1-1.21-2.29-1.58-3.87-.37-1.58-.55-3.51-.55-5.79s.22-4.21,.65-5.86c.43-1.66,1.04-3.02,1.84-4.1,.8-1.08,1.77-1.88,2.92-2.41,1.15-.53,2.44-.8,3.85-.8s2.79,.27,4.04,.8c1.25,.53,2.41,1.44,3.47,2.73v17.46Z"/><path class="d" d="M600.84,166.79c-1.1-1.3-2.47-2.32-4.12-3.04-1.65-.72-3.53-1.08-5.66-1.08-2.45,0-4.59,.44-6.42,1.33-1.82,.89-3.49,2.05-5.01,3.49v-21.67h-9.38v56.41h9.38v-28.17c1.27-1.26,2.61-2.26,4.02-3,1.42-.73,2.94-1.1,4.56-1.1,2.2,0,3.85,.65,4.95,1.96,1.1,1.3,1.65,3.14,1.65,5.52v24.79h9.38v-24.79c0-2.18-.29-4.17-.85-5.98-.57-1.81-1.4-3.37-2.51-4.67Z"/><path class="d" d="M644.02,168.06c-1.67-1.72-3.69-3.05-6.05-3.99-2.37-.94-5-1.4-7.91-1.4s-5.55,.47-7.93,1.4c-2.38,.94-4.41,2.27-6.09,3.99-1.68,1.72-2.99,3.82-3.91,6.3-.92,2.48-1.39,5.25-1.39,8.31s.46,5.87,1.39,8.35c.92,2.48,2.23,4.59,3.91,6.34,1.68,1.75,3.71,3.09,6.09,4.02,2.38,.94,5.02,1.4,7.93,1.4s5.55-.47,7.91-1.4c2.37-.94,4.38-2.28,6.05-4.02,1.67-1.75,2.96-3.86,3.87-6.34,.91-2.48,1.37-5.26,1.37-8.35s-.46-5.83-1.37-8.31c-.91-2.48-2.2-4.58-3.87-6.3Zm-6.78,24.26c-1.56,2.18-3.95,3.27-7.19,3.27s-5.72-1.09-7.29-3.28c-1.57-2.19-2.35-5.37-2.35-9.55s.78-7.37,2.35-9.58c1.57-2.21,4-3.32,7.29-3.32s5.64,1.1,7.19,3.3c1.56,2.2,2.33,5.4,2.33,9.6s-.78,7.39-2.33,9.57Z"/><path class="d" d="M676.21,194.2c-.18-.14-.4-.21-.68-.21-.23,0-.46,.07-.68,.21-.23,.14-.49,.28-.78,.44-.29,.15-.63,.3-1.03,.44s-.88,.21-1.46,.21c-1.01,0-1.82-.34-2.43-1.03-.61-.68-.91-1.63-.91-2.85v-21.11h10.25v-6.68h-10.25v-12.26h-4.86c-.56,0-1.02,.14-1.39,.42-.37,.28-.6,.67-.7,1.18l-1.97,10.63-6.26,1.03v3.72c0,.66,.18,1.15,.55,1.48,.37,.33,.8,.49,1.31,.49h3.95v21.75c0,3.37,.91,6,2.73,7.91,1.82,1.91,4.42,2.87,7.78,2.87,1.9,0,3.73-.29,5.5-.87,1.77-.58,3.34-1.44,4.71-2.58l-2.81-4.56c-.2-.28-.39-.49-.57-.63Z"/><path class="d" d="M714.17,167.29c-1.49-1.51-3.27-2.65-5.33-3.44-2.06-.78-4.32-1.18-6.78-1.18-2.91,0-5.52,.51-7.84,1.52-2.32,1.01-4.28,2.39-5.88,4.12-1.61,1.73-2.84,3.77-3.7,6.11-.86,2.34-1.29,4.84-1.29,7.5,0,3.42,.49,6.42,1.48,9.02,.99,2.59,2.34,4.77,4.06,6.53,1.72,1.76,3.75,3.09,6.07,3.99,2.33,.9,4.85,1.35,7.55,1.35,1.37,0,2.78-.1,4.23-.3,1.46-.2,2.88-.55,4.29-1.04,1.4-.49,2.75-1.15,4.04-1.97,1.29-.82,2.45-1.84,3.49-3.06l-2.73-3.42c-.2-.28-.44-.49-.72-.65-.28-.15-.61-.23-.99-.23-.58,0-1.18,.18-1.8,.53-.62,.35-1.34,.75-2.16,1.18-.82,.43-1.78,.82-2.88,1.18-1.1,.35-2.41,.53-3.93,.53-3.09,0-5.57-.94-7.44-2.81-1.87-1.87-2.95-4.81-3.23-8.81h24.07c.43,0,.78-.06,1.06-.17,.28-.11,.5-.3,.66-.57,.16-.27,.28-.63,.34-1.1,.06-.47,.1-1.06,.1-1.76,0-2.81-.42-5.31-1.25-7.5-.84-2.19-2-4.04-3.49-5.54Zm-21.3,10.99c.43-2.83,1.42-5.02,2.96-6.57,1.54-1.54,3.68-2.32,6.41-2.32,1.39,0,2.61,.23,3.64,.7,1.04,.47,1.9,1.11,2.58,1.92,.68,.81,1.19,1.75,1.52,2.83,.33,1.08,.49,2.22,.49,3.44h-17.61Z"/><rect class="d" x="727.15" y="145.82" width="9.38" height="56.41"/><path class="d" d="M812.97,166.55c-1.14-1.27-2.54-2.23-4.21-2.88-1.67-.66-3.58-.99-5.73-.99-1.24,0-2.47,.14-3.7,.42-1.23,.28-2.39,.71-3.47,1.29-1.09,.58-2.09,1.34-3,2.26s-1.67,2.03-2.28,3.32c-.78-2.2-1.97-3.97-3.55-5.3-1.58-1.33-3.6-1.99-6.05-1.99-1.16,0-2.23,.13-3.21,.4s-1.89,.63-2.73,1.08-1.65,1-2.39,1.63c-.75,.63-1.46,1.33-2.14,2.09l-.61-2.89c-.38-1.14-1.18-1.71-2.39-1.71h-5.73v38.95h9.38v-28.51c1.01-1.16,2.11-2.08,3.28-2.75s2.44-1.01,3.78-1.01c2.05,0,3.6,.59,4.65,1.78,1.05,1.19,1.58,3.09,1.58,5.69v24.79h9.41v-24.79c0-1.21,.18-2.29,.53-3.23,.35-.94,.84-1.71,1.46-2.33,.62-.62,1.34-1.09,2.16-1.42,.82-.33,1.71-.49,2.68-.49,2.1,0,3.69,.63,4.78,1.88,1.09,1.25,1.63,3.12,1.63,5.6v24.79h9.38v-24.79c0-2.35-.3-4.44-.89-6.26s-1.46-3.37-2.6-4.63Z"/><path class="d" d="M852.41,166.79c-1.24-1.33-2.75-2.37-4.54-3.11-1.78-.75-3.82-1.12-6.09-1.12-6.33,0-11.73,2.05-16.21,6.15l1.71,3c.28,.48,.65,.89,1.1,1.21,.46,.33,1,.49,1.63,.49,.76,0,1.45-.18,2.09-.53,.63-.35,1.32-.75,2.07-1.2,.75-.44,1.63-.84,2.64-1.2,1.01-.35,2.28-.53,3.8-.53,2.1,0,3.7,.63,4.8,1.89,1.1,1.26,1.65,3.21,1.65,5.83v2.29c-4.43,0-8.14,.38-11.12,1.14-2.99,.76-5.38,1.72-7.17,2.88-1.8,1.16-3.08,2.45-3.85,3.88-.77,1.43-1.16,2.89-1.16,4.36,0,1.75,.28,3.29,.84,4.61,.56,1.32,1.33,2.42,2.33,3.31,1,.89,2.19,1.56,3.59,2,1.39,.44,2.91,.67,4.55,.67,1.39,0,2.66-.11,3.8-.34,1.14-.23,2.21-.57,3.23-1.02,1.01-.46,1.99-1.02,2.94-1.69s1.92-1.45,2.9-2.33l.84,2.77c.25,.81,.63,1.35,1.14,1.61,.51,.27,1.2,.4,2.09,.4h4.21v-24.6c0-2.2-.32-4.23-.97-6.07-.65-1.85-1.59-3.44-2.83-4.76Zm-5.35,25.44c-.68,.7-1.36,1.3-2.03,1.81-.67,.51-1.37,.94-2.09,1.29s-1.49,.61-2.3,.78c-.81,.17-1.7,.26-2.66,.26-1.57,0-2.84-.36-3.82-1.07-.98-.71-1.46-1.9-1.46-3.56,0-.84,.23-1.62,.7-2.33,.47-.71,1.26-1.34,2.37-1.87,1.11-.54,2.59-.98,4.42-1.32s4.12-.52,6.85-.52v6.52Z"/><path class="d" d="M896.01,166.79c-1.1-1.3-2.47-2.32-4.12-3.04-1.65-.72-3.53-1.08-5.66-1.08-1.32,0-2.53,.13-3.64,.38-1.11,.25-2.16,.62-3.13,1.1-.98,.48-1.9,1.05-2.77,1.71-.87,.66-1.7,1.39-2.49,2.2l-.65-3.07c-.38-1.14-1.18-1.71-2.39-1.71h-5.73v38.95h9.38v-28.17c1.27-1.26,2.61-2.26,4.02-3,1.42-.73,2.94-1.1,4.56-1.1,2.2,0,3.85,.65,4.95,1.96,1.1,1.3,1.65,3.14,1.65,5.52v24.79h9.38v-24.79c0-2.18-.29-4.17-.85-5.98-.57-1.81-1.4-3.37-2.51-4.67Z"/><path class="d" d="M935.32,166.79c-1.24-1.33-2.75-2.37-4.54-3.11-1.78-.75-3.82-1.12-6.09-1.12-6.33,0-11.73,2.05-16.21,6.15l1.71,3c.28,.48,.65,.89,1.1,1.21,.46,.33,1,.49,1.63,.49,.76,0,1.45-.18,2.09-.53,.63-.35,1.32-.75,2.07-1.2,.75-.44,1.63-.84,2.64-1.2,1.01-.35,2.28-.53,3.8-.53,2.1,0,3.7,.63,4.8,1.89,1.1,1.26,1.65,3.21,1.65,5.83v2.29c-4.43,0-8.14,.38-11.12,1.14-2.99,.76-5.38,1.72-7.17,2.88-1.8,1.16-3.08,2.45-3.85,3.88-.77,1.43-1.16,2.89-1.16,4.36,0,1.75,.28,3.29,.84,4.61,.56,1.32,1.33,2.42,2.33,3.31,1,.89,2.19,1.56,3.59,2,1.39,.44,2.91,.67,4.55,.67,1.39,0,2.66-.11,3.8-.34,1.14-.23,2.21-.57,3.23-1.02,1.01-.46,1.99-1.02,2.94-1.69s1.92-1.45,2.9-2.33l.84,2.77c.25,.81,.63,1.35,1.14,1.61,.51,.27,1.2,.4,2.09,.4h4.21v-24.6c0-2.2-.32-4.23-.97-6.07-.65-1.85-1.59-3.44-2.83-4.76Zm-5.35,25.44c-.68,.7-1.36,1.3-2.03,1.81-.67,.51-1.37,.94-2.09,1.29s-1.49,.61-2.3,.78c-.81,.17-1.7,.26-2.66,.26-1.57,0-2.84-.36-3.82-1.07-.98-.71-1.46-1.9-1.46-3.56,0-.84,.23-1.62,.7-2.33,.47-.71,1.26-1.34,2.37-1.87,1.11-.54,2.59-.98,4.42-1.32s4.12-.52,6.85-.52v6.52Z"/><path class="d" d="M966.52,163.11c-1.47-.34-3.04-.51-4.71-.51-2.23,0-4.28,.29-6.17,.87-1.89,.58-3.52,1.42-4.9,2.52-1.38,1.1-2.45,2.43-3.23,3.99-.77,1.56-1.16,3.3-1.16,5.22,0,2.38,.56,4.45,1.69,6.23,1.13,1.77,2.68,3.19,4.65,4.25-.86,.43-1.61,.92-2.24,1.46-.63,.54-1.16,1.12-1.58,1.73-.42,.61-.73,1.22-.93,1.84-.2,.62-.3,1.22-.3,1.8,0,1.42,.29,2.57,.87,3.45,.58,.89,1.35,1.59,2.32,2.13-1.97,.73-3.52,1.72-4.63,2.96-1.11,1.24-1.67,2.77-1.67,4.59,0,1.34,.35,2.63,1.06,3.87,.71,1.24,1.78,2.33,3.21,3.28,1.43,.95,3.23,1.71,5.41,2.28s4.74,.85,7.71,.85,5.64-.39,7.97-1.16c2.33-.78,4.3-1.8,5.9-3.07,1.61-1.27,2.83-2.72,3.68-4.34,.85-1.63,1.27-3.3,1.27-5.03,0-1.85-.36-3.37-1.08-4.55-.72-1.18-1.67-2.11-2.85-2.8-1.18-.69-2.51-1.19-4-1.5-1.49-.32-3.02-.54-4.59-.67-1.57-.13-3.1-.19-4.59-.19s-2.83-.08-4-.23c-1.18-.15-2.13-.41-2.85-.78-.72-.37-1.08-.95-1.08-1.74,0-.92,.61-1.75,1.82-2.48,1.39,.28,2.82,.42,4.29,.42,2.18,0,4.19-.3,6.05-.89,1.86-.59,3.47-1.44,4.82-2.52,1.35-1.09,2.42-2.41,3.19-3.97,.77-1.56,1.16-3.3,1.16-5.22,0-.81-.07-1.58-.21-2.32-.14-.73-.34-1.43-.59-2.09l3.49-.65c.73-.13,1.25-.35,1.56-.68,.3-.33,.46-.78,.46-1.37v-3.49h-11.2c-1.21-.66-2.56-1.16-4.02-1.5Zm-10.32,36.5c1.16,.28,2.37,.42,3.63,.42h3.64c1.18,0,2.29,.07,3.34,.19,1.05,.13,1.97,.33,2.75,.6,.78,.27,1.4,.65,1.86,1.14,.46,.49,.68,1.12,.68,1.9s-.19,1.49-.57,2.15c-.38,.66-.98,1.23-1.8,1.71-.82,.48-1.87,.85-3.13,1.12-1.27,.27-2.77,.41-4.52,.41s-3.18-.12-4.37-.36c-1.19-.24-2.16-.58-2.9-1.01-.75-.43-1.29-.94-1.63-1.54-.34-.59-.51-1.23-.51-1.92,0-1.04,.32-1.96,.97-2.75,.65-.8,1.5-1.49,2.56-2.07Zm12.09-21.6c-.29,.78-.72,1.46-1.29,2.01-.57,.56-1.28,.99-2.14,1.31-.86,.32-1.87,.47-3.04,.47s-2.14-.16-3.02-.47c-.87-.32-1.59-.76-2.16-1.33-.57-.57-1-1.25-1.29-2.03-.29-.78-.44-1.63-.44-2.54,0-1.92,.58-3.45,1.73-4.57s2.88-1.69,5.18-1.69,4.03,.56,5.18,1.69,1.73,2.65,1.73,4.57c0,.94-.15,1.8-.44,2.58Z"/><path class="d" d="M1015.83,167.29c-1.49-1.51-3.27-2.65-5.33-3.44-2.06-.78-4.32-1.18-6.78-1.18-2.91,0-5.52,.51-7.84,1.52-2.32,1.01-4.28,2.39-5.88,4.12-1.61,1.73-2.84,3.77-3.7,6.11-.86,2.34-1.29,4.84-1.29,7.5,0,3.42,.49,6.42,1.48,9.02,.99,2.59,2.34,4.77,4.06,6.53,1.72,1.76,3.75,3.09,6.07,3.99,2.33,.9,4.85,1.35,7.55,1.35,1.37,0,2.78-.1,4.23-.3,1.46-.2,2.88-.55,4.29-1.04,1.4-.49,2.75-1.15,4.04-1.97,1.29-.82,2.45-1.84,3.49-3.06l-2.73-3.42c-.2-.28-.44-.49-.72-.65-.28-.15-.61-.23-.99-.23-.58,0-1.18,.18-1.8,.53-.62,.35-1.34,.75-2.16,1.18-.82,.43-1.78,.82-2.88,1.18-1.1,.35-2.41,.53-3.93,.53-3.09,0-5.57-.94-7.44-2.81-1.87-1.87-2.95-4.81-3.23-8.81h24.07c.43,0,.78-.06,1.06-.17,.28-.11,.5-.3,.66-.57,.16-.27,.28-.63,.34-1.1,.06-.47,.1-1.06,.1-1.76,0-2.81-.42-5.31-1.25-7.5-.84-2.19-2-4.04-3.49-5.54Zm-21.3,10.99c.43-2.83,1.42-5.02,2.96-6.57,1.54-1.54,3.68-2.32,6.41-2.32,1.39,0,2.61,.23,3.64,.7,1.04,.47,1.9,1.11,2.58,1.92,.68,.81,1.19,1.75,1.52,2.83,.33,1.08,.49,2.22,.49,3.44h-17.61Z"/><path class="d" d="M1079.41,166.55c-1.14-1.27-2.54-2.23-4.21-2.88-1.67-.66-3.58-.99-5.73-.99-1.24,0-2.47,.14-3.7,.42-1.23,.28-2.39,.71-3.47,1.29-1.09,.58-2.09,1.34-3,2.26s-1.67,2.03-2.28,3.32c-.78-2.2-1.97-3.97-3.55-5.3-1.58-1.33-3.6-1.99-6.05-1.99-1.16,0-2.23,.13-3.21,.4s-1.89,.63-2.73,1.08-1.65,1-2.39,1.63c-.75,.63-1.46,1.33-2.14,2.09l-.61-2.89c-.38-1.14-1.18-1.71-2.39-1.71h-5.73v38.95h9.38v-28.51c1.01-1.16,2.11-2.08,3.28-2.75s2.44-1.01,3.78-1.01c2.05,0,3.6,.59,4.65,1.78,1.05,1.19,1.58,3.09,1.58,5.69v24.79h9.41v-24.79c0-1.21,.18-2.29,.53-3.23,.35-.94,.84-1.71,1.46-2.33,.62-.62,1.34-1.09,2.16-1.42,.82-.33,1.71-.49,2.68-.49,2.1,0,3.69,.63,4.78,1.88,1.09,1.25,1.63,3.12,1.63,5.6v24.79h9.38v-24.79c0-2.35-.3-4.44-.89-6.26-.59-1.82-1.46-3.37-2.6-4.63Z"/><path class="d" d="M1120.33,167.29c-1.49-1.51-3.27-2.65-5.33-3.44-2.06-.78-4.32-1.18-6.78-1.18-2.91,0-5.52,.51-7.84,1.52-2.32,1.01-4.28,2.39-5.88,4.12-1.61,1.73-2.84,3.77-3.7,6.11-.86,2.34-1.29,4.84-1.29,7.5,0,3.42,.49,6.42,1.48,9.02,.99,2.59,2.34,4.77,4.06,6.53,1.72,1.76,3.75,3.09,6.07,3.99,2.33,.9,4.85,1.35,7.55,1.35,1.37,0,2.78-.1,4.23-.3,1.46-.2,2.88-.55,4.29-1.04,1.4-.49,2.75-1.15,4.04-1.97,1.29-.82,2.45-1.84,3.49-3.06l-2.73-3.42c-.2-.28-.44-.49-.72-.65-.28-.15-.61-.23-.99-.23-.58,0-1.18,.18-1.8,.53-.62,.35-1.34,.75-2.16,1.18-.82,.43-1.78,.82-2.88,1.18-1.1,.35-2.41,.53-3.93,.53-3.09,0-5.57-.94-7.44-2.81-1.87-1.87-2.95-4.81-3.23-8.81h24.07c.43,0,.78-.06,1.06-.17,.28-.11,.5-.3,.66-.57,.16-.27,.28-.63,.34-1.1,.06-.47,.1-1.06,.1-1.76,0-2.81-.42-5.31-1.25-7.5-.84-2.19-2-4.04-3.49-5.54Zm-21.3,10.99c.43-2.83,1.42-5.02,2.96-6.57,1.54-1.54,3.68-2.32,6.41-2.32,1.39,0,2.61,.23,3.64,.7,1.04,.47,1.9,1.11,2.58,1.92,.68,.81,1.19,1.75,1.52,2.83,.33,1.08,.49,2.22,.49,3.44h-17.61Z"/><path class="d" d="M1163.28,166.79c-1.1-1.3-2.47-2.32-4.12-3.04-1.65-.72-3.53-1.08-5.66-1.08-1.32,0-2.53,.13-3.64,.38-1.11,.25-2.16,.62-3.13,1.1-.98,.48-1.9,1.05-2.77,1.71-.87,.66-1.7,1.39-2.49,2.2l-.65-3.07c-.38-1.14-1.18-1.71-2.39-1.71h-5.73v38.95h9.38v-28.17c1.27-1.26,2.61-2.26,4.02-3,1.42-.73,2.94-1.1,4.56-1.1,2.2,0,3.85,.65,4.95,1.96,1.1,1.3,1.65,3.14,1.65,5.52v24.79h9.38v-24.79c0-2.18-.29-4.17-.85-5.98-.57-1.81-1.4-3.37-2.51-4.67Z"/><path class="d" d="M1195.49,194.2c-.18-.14-.4-.21-.68-.21-.23,0-.46,.07-.68,.21-.23,.14-.49,.28-.78,.44-.29,.15-.63,.3-1.03,.44s-.88,.21-1.46,.21c-1.01,0-1.82-.34-2.43-1.03-.61-.68-.91-1.63-.91-2.85v-21.11h10.25v-6.68h-10.25v-12.26h-4.86c-.56,0-1.02,.14-1.39,.42-.37,.28-.6,.67-.7,1.18l-1.97,10.63-6.26,1.03v3.72c0,.66,.18,1.15,.55,1.48,.37,.33,.8,.49,1.31,.49h3.95v21.75c0,3.37,.91,6,2.73,7.91,1.82,1.91,4.42,2.87,7.78,2.87,1.9,0,3.73-.29,5.5-.87,1.77-.58,3.34-1.44,4.71-2.58l-2.81-4.56c-.2-.28-.39-.49-.57-.63Z"/></g></g></g></svg>